# xmcd CD database file
#
# Track frame offsets:
#	150
#	44012
#	77690
#	121965
#	156475
#	196055
#	233087
#	264897
#	306562
#
# Disc length: 4384 seconds
#
# Revision: 0
# Processed by: cddbd v1.5.2PL0 Copyright (c) Steve Scherf et al.
# Submitted via: CDex 1.70beta2
#
DISCID=74111e09
DTITLE=Zoot Sims - In Copenhagen
DYEAR=1978
DGENRE=Jazz
TTITLE0=Groovin' High
TTITLE1=Too Close For Comfort
TTITLE2=All The Things You Are
TTITLE3=In The Middle Of A Kiss
TTITLE4=I'll Remember April
TTITLE5=It's All Right With Me
TTITLE6=The Very Thought Of You
TTITLE7=Blue Hodge
TTITLE8=Morning Fun
EXTD=YEAR: 1978
EXTT0=
EXTT1=
EXTT2=
EXTT3=
EXTT4=
EXTT5=
EXTT6=
EXTT7=
EXTT8=
PLAYORDER=
